<?xml version="1.0" encoding="iso-8859-1"?>
<!-- Uploaded to: SVG Repo, www.svgrepo.com, Generator: SVG Repo Mixer Tools -->
<svg fill="#000000" version="1.1" id="Layer_1" xmlns="http://www.w3.org/2000/svg" xmlns:xlink="http://www.w3.org/1999/xlink" 
	 viewBox="0 0 512 512" xml:space="preserve">
<g>
	<g>
		<rect x="169.388" y="86.298" width="98.649" height="49.34"/>
	</g>
</g>
<g>
	<g>
		<path d="M82.87,0v266.606h15.673h15.673h209h15.674h15.673V0H82.87z M299.382,166.985H138.039V54.951h161.343V166.985z"/>
	</g>
</g>
<g>
	<g>
		<polygon points="370.227,447.216 354.563,447.216 82.87,447.216 67.206,447.216 51.533,447.216 51.533,512 385.901,512 
			385.901,447.216 		"/>
	</g>
</g>
<g>
	<g>
		<path d="M460.467,31.95V0.603c-15.953,0-29.624,5.293-39.534,15.306C404.182,32.832,403.76,56.946,403.78,60.12v9.903h-15.237
			v112.153h15.237v114.488c0,11.234-9.14,20.373-20.373,20.373h-28.843v-19.085H338.89h-15.673h-209H98.542H82.869v117.917h15.673
			h15.673h209h15.673h15.673v-67.486h28.843c28.518,0,51.72-23.202,51.72-51.72V182.175h14.543V70.022h-14.543v-9.964l0.004,0.036
			l-0.003-0.14c0.014-0.744,0.245-8.615,3.825-15.869C443.096,35.693,449.731,31.95,460.467,31.95z M267.315,358.296h-95.107
			v-31.347h95.107V358.296z"/>
	</g>
</g>
</svg>